<svg width="25" height="25" viewBox="0 0 25 25" fill="none" xmlns="http://www.w3.org/2000/svg">
<rect width="25" height="25" rx="5" fill="#3B82F6"/>
<path d="M1.645 12.765C1.645 11.745 1.875 10.83 2.335 10.02C2.795 9.2 3.42 8.56 4.21 8.1C5.01 7.64 5.895 7.41 6.865 7.41C8.005 7.41 9 7.685 9.85 8.235C10.7 8.785 11.32 9.565 11.71 10.575H10.075C9.785 9.945 9.365 9.46 8.815 9.12C8.275 8.78 7.625 8.61 6.865 8.61C6.135 8.61 5.48 8.78 4.9 9.12C4.32 9.46 3.865 9.945 3.535 10.575C3.205 11.195 3.04 11.925 3.04 12.765C3.04 13.595 3.205 14.325 3.535 14.955C3.865 15.575 4.32 16.055 4.9 16.395C5.48 16.735 6.135 16.905 6.865 16.905C7.625 16.905 8.275 16.74 8.815 16.41C9.365 16.07 9.785 15.585 10.075 14.955H11.71C11.32 15.955 10.7 16.73 9.85 17.28C9 17.82 8.005 18.09 6.865 18.09C5.895 18.09 5.01 17.865 4.21 17.415C3.42 16.955 2.795 16.32 2.335 15.51C1.875 14.7 1.645 13.785 1.645 12.765ZM13.2319 12.765C13.2319 11.745 13.4619 10.83 13.9219 10.02C14.3819 9.2 15.0069 8.56 15.7969 8.1C16.5969 7.64 17.4819 7.41 18.4519 7.41C19.5919 7.41 20.5869 7.685 21.4369 8.235C22.2869 8.785 22.9069 9.565 23.2969 10.575H21.6619C21.3719 9.945 20.9519 9.46 20.4019 9.12C19.8619 8.78 19.2119 8.61 18.4519 8.61C17.7219 8.61 17.0669 8.78 16.4869 9.12C15.9069 9.46 15.4519 9.945 15.1219 10.575C14.7919 11.195 14.6269 11.925 14.6269 12.765C14.6269 13.595 14.7919 14.325 15.1219 14.955C15.4519 15.575 15.9069 16.055 16.4869 16.395C17.0669 16.735 17.7219 16.905 18.4519 16.905C19.2119 16.905 19.8619 16.74 20.4019 16.41C20.9519 16.07 21.3719 15.585 21.6619 14.955H23.2969C22.9069 15.955 22.2869 16.73 21.4369 17.28C20.5869 17.82 19.5919 18.09 18.4519 18.09C17.4819 18.09 16.5969 17.865 15.7969 17.415C15.0069 16.955 14.3819 16.32 13.9219 15.51C13.4619 14.7 13.2319 13.785 13.2319 12.765Z" fill="white"/>
</svg>
